<?xml version="1.0" encoding="utf-8"?>
<!-- Generator: Adobe Illustrator 16.0.0, SVG Export Plug-In . SVG Version: 6.00 Build 0)  -->
<!DOCTYPE svg PUBLIC "-//W3C//DTD SVG 1.1//EN" "http://www.w3.org/Graphics/SVG/1.1/DTD/svg11.dtd">
<svg version="1.1" id="Layer_1" xmlns="http://www.w3.org/2000/svg" xmlns:xlink="http://www.w3.org/1999/xlink" x="0px" y="0px"
	 width="557px" height="559px" viewBox="-4.5 -11.5 557 559" enable-background="new -4.5 -11.5 557 559" xml:space="preserve">
<path fill="#D3D3D3" d="M416,352l96-111.9h-64.7c-2.3-27.9-10.5-54-23.5-77.3c-27.399-49.2-75.8-85.1-133-95.6
	c-0.7-0.1-1.5-0.3-2.2-0.4c-0.5-0.1-0.899-0.2-1.399-0.2C277.1,64.9,266.6,64,256,64c-0.1,0-0.3,0-0.4,0l0,0
	c-90.9,0.2-167,63.6-186.7,148.6v0.1c-0.3,1.1-0.5,2.2-0.7,3.3c-0.1,0.5-0.2,0.9-0.3,1.4c-0.1,0.7-0.3,1.4-0.4,2.1
	c-0.2,0.9-0.3,1.7-0.5,2.6c-0.1,0.4-0.1,0.7-0.2,1.1c-0.2,1.2-0.4,2.4-0.6,3.6c0,0.1,0,0.1,0,0.2c-1,6.3-1.6,12.7-1.9,19.1
	c0,0.3,0,0.6,0,0.8c-0.1,1.4-0.1,2.7-0.2,4.1c0,1.6-0.1,3.3-0.1,5s0,3.3,0.1,5c0,1.4,0.1,2.7,0.2,4.1c0,0.301,0,0.601,0,0.9
	c0.3,6.5,1,12.9,1.9,19.1c0,0.101,0,0.101,0,0.201c0.2,1.199,0.4,2.399,0.6,3.6c0.1,0.4,0.1,0.699,0.2,1.1
	c0.2,0.9,0.3,1.801,0.5,2.6c0.1,0.701,0.3,1.4,0.4,2.101c0.1,0.5,0.2,1,0.3,1.399c0.2,1.101,0.5,2.2,0.7,3.2v0.101
	C88.6,384.4,165,447.8,256,448c42.9-0.1,83.1-14.2,116.9-40.7l7.5-5.899l-43.2-46.2l-6.2,4.6c-22.1,16.3-47.5,24.2-75,24.2
	c-70.6,0-128-57-128-128s57.4-128,128-128c66.4,0,122.8,46.6,129.5,112H312L416,352z"/>
<circle fill="none" stroke="#D3D3D3" stroke-width="10" stroke-miterlimit="10" cx="273.75" cy="267.25" r="267.75"/>
</svg>
